<svg width="13" height="8" viewBox="0 0 13 8" fill="none" xmlns="http://www.w3.org/2000/svg">
<path d="M0.794986 7.25407C0.59963 7.05872 0.501953 6.81008 0.501953 6.50817C0.501953 6.20626 0.59963 5.95762 0.794986 5.76227L5.69663 0.860629C5.80318 0.754071 5.91862 0.678771 6.04294 0.634727C6.16725 0.590684 6.30045 0.568307 6.44253 0.567596C6.5846 0.567596 6.72242 0.594236 6.85597 0.647514C6.98952 0.700793 7.10034 0.771831 7.18843 0.860629L12.0901 5.76227C12.2854 5.95762 12.3831 6.20626 12.3831 6.50817C12.3831 6.81008 12.2854 7.05872 12.0901 7.25407C11.8947 7.44943 11.6461 7.54711 11.3442 7.54711C11.0423 7.54711 10.7936 7.44943 10.5983 7.25407L6.44253 3.09833L2.28679 7.25407C2.09143 7.44943 1.8428 7.54711 1.54089 7.54711C1.23897 7.54711 0.990341 7.44943 0.794986 7.25407Z" fill="#36416A"/>
</svg>
